<svg xmlns="http://www.w3.org/2000/svg" version="1.1" xmlns:xlink="http://www.w3.org/1999/xlink" xmlns:svgjs="http://svgjs.dev/svgjs" width="2560" height="1440" preserveAspectRatio="none" viewBox="0 0 2560 1440"><g mask="url(&quot;#SvgjsMask1608&quot;)" fill="none"><rect width="2560" height="1440" x="0" y="0" fill="url(&quot;#SvgjsLinearGradient1609&quot;)"></rect><path d="M2560 0L1616.99 0L2560 109.18z" fill="rgba(255, 255, 255, .1)"></path><path d="M1616.99 0L2560 109.18L2560 129.99L998.85 0z" fill="rgba(255, 255, 255, .075)"></path><path d="M998.8499999999999 0L2560 129.99L2560 639.4300000000001L452.7499999999999 0z" fill="rgba(255, 255, 255, .05)"></path><path d="M452.75 0L2560 639.4300000000001L2560 1001.8500000000001L395.64 0z" fill="rgba(255, 255, 255, .025)"></path><path d="M0 1440L93.67 1440L0 1084.31z" fill="rgba(0, 0, 0, .1)"></path><path d="M0 1084.31L93.67 1440L632.49 1440L0 897.55z" fill="rgba(0, 0, 0, .075)"></path><path d="M0 897.55L632.49 1440L1713.61 1440L0 352.9z" fill="rgba(0, 0, 0, .05)"></path><path d="M0 352.9000000000001L1713.61 1440L2284.05 1440L0 333.5000000000001z" fill="rgba(0, 0, 0, .025)"></path></g><defs><mask id="SvgjsMask1608"><rect width="2560" height="1440" fill="#ffffff"></rect></mask><linearGradient x1="10.94%" y1="-19.44%" x2="89.06%" y2="119.44%" gradientUnits="userSpaceOnUse" id="SvgjsLinearGradient1609"><stop stop-color="#0e2a47" offset="0"></stop><stop stop-color="rgba(39, 0, 66, 1)" offset="1"></stop></linearGradient></defs></svg>